# xmcd CD database file
#
# Track frame offsets:
#	150
#	13648
#	29345
#	40053
#	56033
#	65845
#	80443
#	89208
#	102173
#	117843
#	129350
#	144893
#	153303
#
# Disc length: 2264 seconds
#
# Revision: 1
# Processed by: cddbd v1.4PL0 Copyright (c) Steve Scherf et al.
# Submitted via: CDex 1.50
#
DISCID=aa08d60d
DTITLE=Front Range - Back To Red River
DYEAR=1993
DGENRE=Bluegrass
TTITLE0=Red River Valley/Back To Red River
TTITLE1=The Hills That I Call Home
TTITLE2=Maybe This Time
TTITLE3=Two Empty Arms (And One Broken Heart)
TTITLE4=False Summit
TTITLE5=I've Always Been a Rambler
TTITLE6=Over In The Gloryland
TTITLE7=Forever By My Side
TTITLE8=Cold North Wind
TTITLE9=Sunny Side of Life
TTITLE10=Plains of The Buffalo
TTITLE11=Please Joanna
TTITLE12=So Many Pathways
EXTD=YEAR: 1993
EXTT0=
EXTT1=
EXTT2=
EXTT3=
EXTT4=
EXTT5=
EXTT6=
EXTT7=
EXTT8=
EXTT9=
EXTT10=
EXTT11=
EXTT12=
PLAYORDER=
